<svg width="480" height="480" viewBox="0 0 480 480" fill="none" xmlns="http://www.w3.org/2000/svg">
  <defs>
    <linearGradient id="bg" x1="60" y1="40" x2="430" y2="430" gradientUnits="userSpaceOnUse">
      <stop stop-color="#0E1C36"/>
      <stop offset="0.46" stop-color="#103C5B"/>
      <stop offset="1" stop-color="#F97316"/>
    </linearGradient>
    <linearGradient id="card" x1="92" y1="98" x2="372" y2="380" gradientUnits="userSpaceOnUse">
      <stop stop-color="#FFFFFF" stop-opacity="0.2"/>
      <stop offset="1" stop-color="#FFFFFF" stop-opacity="0.06"/>
    </linearGradient>
    <radialGradient id="glow" cx="0" cy="0" r="1" gradientUnits="userSpaceOnUse" gradientTransform="translate(348 114) rotate(135) scale(180 180)">
      <stop stop-color="#F59E0B" stop-opacity="0.8"/>
      <stop offset="1" stop-color="#F59E0B" stop-opacity="0"/>
    </radialGradient>
  </defs>
  <rect width="480" height="480" rx="48" fill="url(#bg)"/>
  <circle cx="350" cy="120" r="140" fill="url(#glow)"/>
  <rect x="44" y="44" width="392" height="392" rx="38" fill="url(#card)" stroke="#FFFFFF" stroke-opacity="0.16"/>
  <path d="M126 377C126 321.772 170.772 277 226 277H254C309.228 277 354 321.772 354 377V390H126V377Z" fill="#ECFEFF" fill-opacity="0.18"/>
  <circle cx="240" cy="202" r="74" fill="#FFF7ED" fill-opacity="0.92"/>
  <path d="M170 196C182.333 148.667 205.667 125 240 125C274.333 125 297.667 148.667 310 196C292.667 171.333 269.333 159 240 159C210.667 159 187.333 171.333 170 196Z" fill="#0F172A" fill-opacity="0.9"/>
  <path d="M188 248C205.333 262 222.667 269 240 269C257.333 269 274.667 262 292 248C280.667 286 263.333 305 240 305C216.667 305 199.333 286 188 248Z" fill="#FB923C" fill-opacity="0.36"/>
  <circle cx="362" cy="350" r="40" stroke="#F8FAFC" stroke-opacity="0.28" stroke-width="2"/>
  <circle cx="98" cy="110" r="12" fill="#F8FAFC" fill-opacity="0.44"/>
  <circle cx="124" cy="92" r="4" fill="#F8FAFC" fill-opacity="0.72"/>
  <path d="M324 322L356 290" stroke="#F8FAFC" stroke-opacity="0.4" stroke-width="2"/>
  <text x="74" y="82" fill="#E2E8F0" font-family="Georgia, serif" font-size="24" letter-spacing="3">DEVELOPER</text>
  <text x="72" y="418" fill="#FFFFFF" font-family="Georgia, serif" font-size="54" font-weight="700">About Me</text>
</svg>
